<svg xmlns="http://www.w3.org/2000/svg" width="407.558" height="37.054" viewBox="0 0 407.558 37.054">
    <g data-name="Group 9">
        <g data-name="Group 5">
            <path data-name="Path 3" d="M76.782 69.741c13.772 35.705 39.7 14.709 53.546 1.768 7.51-7.018 15.842-12.238 26.039-11.422 10.652.85 19.086 4.378 30.58 25.116-23.392-46.59-50.144-32.672-66.622-19.885-13.653 10.594-32.883 31.057-43.543 4.423z" style="fill-rule:evenodd;fill:#0077b9" transform="translate(-76.782 -52.937)"/>
            <path data-name="Path 4" d="M208.191 72.722c-13.772-35.7-39.7-14.708-53.546-1.767-7.51 7.018-15.842 12.238-26.039 11.423-10.653-.852-19.086-4.378-30.58-25.118 23.392 46.591 50.144 32.673 66.622 19.886 13.653-10.594 32.883-31.057 43.543-4.424z" style="fill:#8bc9e5;fill-rule:evenodd" transform="translate(-76.782 -52.937)"/>
        </g>
        <g data-name="Group 8">
            <g data-name="Group 6">
                <path data-name="Path 5" d="M222.789 54.076h3.7v6.648h6.811v-6.648h3.7v16.8h-3.7v-6.744h-6.817v6.744h-3.7z" style="fill:#231f20" transform="translate(-76.782 -52.937)"/>
                <path data-name="Path 6" d="m247.918 64.252-6.457-10.176h4.321l4.008 6.744 4.08-6.744h4.2l-6.457 10.1v6.7h-3.7z" style="fill:#231f20" transform="translate(-76.782 -52.937)"/>
                <path data-name="Path 7" d="M262.533 54.076h6.552c5.281 0 8.929 3.624 8.929 8.352v.048c0 4.728-3.648 8.4-8.929 8.4h-6.552zm3.7 3.335V67.54h2.856a4.788 4.788 0 0 0 5.065-5.016v-.048a4.827 4.827 0 0 0-5.065-5.065z" style="fill:#231f20" transform="translate(-76.782 -52.937)"/>
                <path data-name="Path 8" d="M283.461 54.076h7.68a6.7 6.7 0 0 1 4.9 1.7 5.273 5.273 0 0 1 1.44 3.84v.048a5.217 5.217 0 0 1-3.6 5.208l4.1 6h-4.32l-3.6-5.376h-2.9v5.376h-3.7zm7.441 8.16c1.8 0 2.832-.96 2.832-2.376v-.048c0-1.584-1.1-2.4-2.9-2.4h-3.672v4.825z" style="fill:#231f20" transform="translate(-76.782 -52.937)"/>
                <path data-name="Path 9" d="M308.733 53.955h3.408l7.2 16.921h-3.864l-1.536-3.768h-7.1l-1.541 3.768h-3.768zm3.888 9.889-2.232-5.444-2.232 5.448z" style="fill:#231f20" transform="translate(-76.782 -52.937)"/>
                <path data-name="Path 10" d="M325.845 57.484h-5.113v-3.408h13.921v3.408h-5.112v13.392h-3.7z" style="fill:#231f20" transform="translate(-76.782 -52.937)"/>
                <path data-name="Path 11" d="M339.812 54.076h3.7v16.8h-3.7z" style="fill:#231f20" transform="translate(-76.782 -52.937)"/>
                <path data-name="Path 12" d="M349.124 62.524v-.048a8.933 8.933 0 0 1 17.858-.048v.048a8.933 8.933 0 0 1-17.858.048zm13.994 0v-.048a5.1 5.1 0 0 0-5.089-5.28 5.024 5.024 0 0 0-5.04 5.232v.048a5.1 5.1 0 0 0 5.089 5.28 5.024 5.024 0 0 0 5.04-5.232z" style="fill:#231f20" transform="translate(-76.782 -52.937)"/>
                <path data-name="Path 13" d="M372.428 54.076h3.408l7.873 10.344V54.076h3.648v16.8h-3.144L376.076 60.2v10.68h-3.648z" style="fill:#231f20" transform="translate(-76.782 -52.937)"/>
                <path data-name="Path 14" d="M402.908 54.076h7.681a6.7 6.7 0 0 1 4.9 1.7 5.273 5.273 0 0 1 1.44 3.84v.048a5.217 5.217 0 0 1-3.6 5.208l4.1 6h-4.321l-3.6-5.376h-2.9v5.376h-3.7zm7.44 8.16c1.8 0 2.833-.96 2.833-2.376v-.048c0-1.584-1.105-2.4-2.9-2.4H406.6v4.825z" style="fill:#231f20" transform="translate(-76.782 -52.937)"/>
                <path data-name="Path 15" d="M421.676 62.524v-.048a8.933 8.933 0 0 1 17.857-.048v.048a8.933 8.933 0 0 1-17.857.048zm13.993 0v-.048a5.1 5.1 0 0 0-5.089-5.28 5.024 5.024 0 0 0-5.04 5.232v.048a5.1 5.1 0 0 0 5.088 5.28 5.025 5.025 0 0 0 5.041-5.232z" style="fill:#231f20" transform="translate(-76.782 -52.937)"/>
                <path data-name="Path 16" d="M444.235 62.524v-.048a8.933 8.933 0 0 1 17.858-.048v.048a8.933 8.933 0 0 1-17.858.048zm13.993 0v-.048a5.1 5.1 0 0 0-5.089-5.28 5.024 5.024 0 0 0-5.04 5.232v.048a5.1 5.1 0 0 0 5.088 5.28 5.025 5.025 0 0 0 5.041-5.232z" style="fill:#231f20" transform="translate(-76.782 -52.937)"/>
                <path data-name="Path 17" d="M467.539 54.076h3.984l4.416 7.1 4.416-7.1h3.985v16.8h-3.672V59.908l-4.729 7.176h-.1l-4.681-7.1v10.9h-3.624z" style="fill:#231f20" transform="translate(-76.782 -52.937)"/>
            </g>
            <g data-name="Group 7">
                <path data-name="Path 18" d="M222.789 80.734h1.028v9.1h-1.028z" style="fill:#0077b9" transform="translate(-76.782 -52.937)"/>
                <path data-name="Path 19" d="M226.052 80.734h1.148l3.237 7.839 3.25-7.839h1.1l-3.912 9.166h-.909z" style="fill:#0077b9" transform="translate(-76.782 -52.937)"/>
                <path data-name="Path 20" d="M244.552 80.668h.962l4.146 9.166h-1.1l-1.066-2.4h-4.954l-1.079 2.4H240.4zm2.535 5.838-2.068-4.641-2.08 4.641z" style="fill:#0077b9" transform="translate(-76.782 -52.937)"/>
                <path data-name="Path 21" d="M251.8 80.734h.962l5.733 7.293v-7.293h1v9.1h-.819l-5.876-7.463v7.463h-1z" style="fill:#0077b9" transform="translate(-76.782 -52.937)"/>
                <path data-name="Path 22" d="M262.426 80.734h3.159a4.536 4.536 0 0 1 4.836 4.524v.026a4.556 4.556 0 0 1-4.836 4.55h-3.159zm1.027.949v7.2h2.132a3.522 3.522 0 0 0 3.77-3.575v-.026a3.542 3.542 0 0 0-3.77-3.6z" style="fill:#0077b9" transform="translate(-76.782 -52.937)"/>
                <path data-name="Path 23" d="M277.285 80.734h1.027v9.1h-1.027z" style="fill:#0077b9" transform="translate(-76.782 -52.937)"/>
                <path data-name="Path 24" d="M281.328 80.734h.962l5.733 7.293v-7.293h1v9.1h-.823l-5.876-7.463v7.463h-1z" style="fill:#0077b9" transform="translate(-76.782 -52.937)"/>
                <path data-name="Path 25" d="m291.065 88.352.741-.637a2.343 2.343 0 0 0 2.08 1.3c1.027 0 1.781-.741 1.781-2.184v-6.1h1.04v6.084a3.284 3.284 0 0 1-.832 2.392 2.79 2.79 0 0 1-2 .754 3.116 3.116 0 0 1-2.81-1.609z" style="fill:#0077b9" transform="translate(-76.782 -52.937)"/>
                <path data-name="Path 26" d="M299.489 80.734h6.578v.936h-5.552v3.107h4.967v.936h-4.967V88.9h5.617v.936h-6.643z" style="fill:#0077b9" transform="translate(-76.782 -52.937)"/>
                <path data-name="Path 27" d="M308.146 85.31v-.026a4.586 4.586 0 0 1 4.6-4.707 4.733 4.733 0 0 1 3.549 1.444l-.7.754a3.955 3.955 0 0 0-2.86-1.248 3.567 3.567 0 0 0-3.523 3.731v.026a3.591 3.591 0 0 0 3.523 3.757 3.95 3.95 0 0 0 2.938-1.313l.676.663a4.739 4.739 0 0 1-3.64 1.6 4.541 4.541 0 0 1-4.563-4.681z" style="fill:#0077b9" transform="translate(-76.782 -52.937)"/>
                <path data-name="Path 28" d="M320.913 81.683h-3.068v-.949h7.162v.949h-3.067v8.151h-1.027z" style="fill:#0077b9" transform="translate(-76.782 -52.937)"/>
                <path data-name="Path 29" d="M327.322 80.734h1.027v9.1h-1.027z" style="fill:#0077b9" transform="translate(-76.782 -52.937)"/>
                <path data-name="Path 30" d="M330.961 85.31v-.026a4.641 4.641 0 1 1 9.282-.026v.026a4.641 4.641 0 1 1-9.282.026zm8.216 0v-.026a3.618 3.618 0 0 0-3.588-3.757 3.574 3.574 0 0 0-3.561 3.731v.026a3.617 3.617 0 0 0 3.588 3.757 3.574 3.574 0 0 0 3.561-3.731z" style="fill:#0077b9" transform="translate(-76.782 -52.937)"/>
                <path data-name="Path 31" d="M342.765 80.734h.962l5.733 7.293v-7.293h1v9.1h-.819l-5.876-7.463v7.463h-1z" style="fill:#0077b9" transform="translate(-76.782 -52.937)"/>
                <path data-name="Path 32" d="M360 81.683h-3.068v-.949h7.168v.949h-3.07v8.151H360z" style="fill:#0077b9" transform="translate(-76.782 -52.937)"/>
                <path data-name="Path 33" d="M366.321 80.734h1.027v4.043h5.252v-4.043h1.027v9.1H372.6v-4.1h-5.252v4.1h-1.027z" style="fill:#0077b9" transform="translate(-76.782 -52.937)"/>
                <path data-name="Path 34" d="M376.552 80.734h6.578v.936h-5.552v3.107h4.967v.936h-4.967V88.9h5.622v.936h-6.643z" style="fill:#0077b9" transform="translate(-76.782 -52.937)"/>
                <path data-name="Path 35" d="M385.613 80.734h3.913a3.588 3.588 0 0 1 2.587.91 2.513 2.513 0 0 1 .7 1.794v.026a2.663 2.663 0 0 1-2.47 2.652l2.8 3.718h-1.261L389.24 86.3h-2.6v3.536h-1.027zm3.822 4.641c1.365 0 2.34-.7 2.34-1.872v-.026c0-1.118-.858-1.794-2.327-1.794h-2.808v3.692z" style="fill:#0077b9" transform="translate(-76.782 -52.937)"/>
                <path data-name="Path 36" d="M398.73 80.668h.962l4.147 9.166h-1.1l-1.067-2.4h-4.952l-1.079 2.4h-1.054zm2.535 5.838-2.065-4.641-2.08 4.641z" style="fill:#0077b9" transform="translate(-76.782 -52.937)"/>
                <path data-name="Path 37" d="M405.984 80.734h3.406c2.054 0 3.406 1.092 3.406 2.885v.027c0 1.963-1.638 2.977-3.575 2.977h-2.21v3.211h-1.027zm3.276 4.953c1.508 0 2.5-.806 2.5-2v-.026c0-1.3-.975-1.976-2.444-1.976h-2.3v4z" style="fill:#0077b9" transform="translate(-76.782 -52.937)"/>
                <path data-name="Path 38" d="m417.736 86.233-3.784-5.5h1.248l3.068 4.55 3.1-4.55h1.195l-3.783 5.486v3.614h-1.04z" style="fill:#0077b9" transform="translate(-76.782 -52.937)"/>
            </g>
        </g>
    </g>
</svg>
